<svg width="23" height="23" viewBox="0 0 23 23" fill="none" xmlns="http://www.w3.org/2000/svg">
<path fill-rule="evenodd" clip-rule="evenodd" d="M11.25 0.00375366C5.04 0.00375366 0 5.10798 0 11.3971C0 17.6863 5.04 22.7905 11.25 22.7905C17.46 22.7905 22.5 17.6863 22.5 11.3971C22.5 5.10798 17.46 0.00375366 11.25 0.00375366ZM5.70351 18.5522C6.18726 17.5268 9.13476 16.5241 11.2498 16.5241C13.3648 16.5241 16.3235 17.5268 16.796 18.5522C15.266 19.7826 13.3423 20.5118 11.2498 20.5118C9.15726 20.5118 7.23351 19.7826 5.70351 18.5522ZM11.2498 14.2455C12.8923 14.2455 16.796 14.9177 18.4048 16.9001C19.5523 15.3734 20.2498 13.4707 20.2498 11.3971C20.2498 6.37266 16.211 2.28244 11.2498 2.28244C6.28851 2.28244 2.24976 6.37266 2.24976 11.3971C2.24976 13.4707 2.94726 15.3734 4.09476 16.9001C5.70351 14.9177 9.60726 14.2455 11.2498 14.2455ZM11.2501 4.56113C9.06764 4.56113 7.31264 6.33849 7.31264 8.5488C7.31264 10.7591 9.06764 12.5365 11.2501 12.5365C13.4326 12.5365 15.1876 10.7591 15.1876 8.5488C15.1876 6.33849 13.4326 4.56113 11.2501 4.56113ZM9.56241 8.54877C9.56241 9.49442 10.3162 10.2578 11.2499 10.2578C12.1837 10.2578 12.9374 9.49442 12.9374 8.54877C12.9374 7.60311 12.1837 6.83975 11.2499 6.83975C10.3162 6.83975 9.56241 7.60311 9.56241 8.54877Z" fill="#D3D6E2"/>
</svg>
