<svg width="23" height="24" viewBox="0 0 23 24" fill="none" xmlns="http://www.w3.org/2000/svg">
<path fill-rule="evenodd" clip-rule="evenodd" d="M0 11.6104C0 5.32126 5.02875 0.217041 11.2387 0.217041C17.46 0.217041 22.5 5.32126 22.5 11.6104C22.5 17.8995 17.46 23.0038 11.2387 23.0038C5.02875 23.0038 0 17.8995 0 11.6104ZM15.7162 7.05307H19.035C17.955 5.17315 16.2337 3.7148 14.1637 2.99701C14.8387 4.26168 15.3562 5.62889 15.7162 7.05307ZM11.2501 2.54129C12.1839 3.9085 12.9151 5.42382 13.3989 7.05307H9.10139C9.58514 5.42382 10.3164 3.9085 11.2501 2.54129ZM2.24976 11.6104C2.24976 12.3965 2.36226 13.1599 2.54226 13.8891H6.34476C6.25476 13.1371 6.18726 12.3851 6.18726 11.6104C6.18726 10.8356 6.25476 10.0837 6.34476 9.33173H2.54226C2.36226 10.0609 2.24976 10.8243 2.24976 11.6104ZM3.46523 16.1678H6.78399C7.14399 17.5919 7.66149 18.9591 8.33649 20.2238C6.26649 19.506 4.54523 18.059 3.46523 16.1678ZM3.46523 7.05307H6.78399C7.14399 5.62889 7.66149 4.26168 8.33649 2.99701C6.26649 3.7148 4.54523 5.16176 3.46523 7.05307ZM11.2501 20.6795C10.3164 19.3123 9.58514 17.797 9.10139 16.1678H13.3989C12.9151 17.797 12.1839 19.3123 11.2501 20.6795ZM8.61779 13.8891H13.8828C13.984 13.1371 14.0628 12.3851 14.0628 11.6104C14.0628 10.8356 13.984 10.0723 13.8828 9.33173H8.61779C8.51654 10.0723 8.43779 10.8356 8.43779 11.6104C8.43779 12.3851 8.51654 13.1371 8.61779 13.8891ZM14.1637 20.2238C14.8387 18.9591 15.3562 17.5919 15.7162 16.1678H19.035C17.955 18.0477 16.2337 19.506 14.1637 20.2238ZM16.3126 11.6104C16.3126 12.3851 16.2451 13.1371 16.1551 13.8891H19.9576C20.1376 13.1599 20.2501 12.3965 20.2501 11.6104C20.2501 10.8243 20.1376 10.0609 19.9576 9.33173H16.1551C16.2451 10.0837 16.3126 10.8356 16.3126 11.6104Z" fill="#D3D6E2"/>
</svg>
