<svg width="23" height="23" viewBox="0 0 23 23" fill="none" xmlns="http://www.w3.org/2000/svg">
<path fill-rule="evenodd" clip-rule="evenodd" d="M11.25 0.790497C5.04 0.790497 0 5.7185 0 11.7905C0 17.8625 5.04 22.7905 11.25 22.7905C17.46 22.7905 22.5 17.8625 22.5 11.7905C22.5 5.7185 17.46 0.790497 11.25 0.790497ZM11.2503 20.5905C6.28904 20.5905 2.25029 16.6415 2.25029 11.7905C2.25029 6.9395 6.28904 2.99051 11.2503 2.99051C16.2115 2.99051 20.2503 6.9395 20.2503 11.7905C20.2503 16.6415 16.2115 20.5905 11.2503 20.5905ZM8.96649 9.00749C8.96649 9.81049 9.60774 10.3495 11.599 10.8445C13.579 11.3505 15.7052 12.1865 15.7165 14.6065C15.7052 16.3775 14.3552 17.3345 12.6452 17.6535V19.4905H10.0127V17.6205C8.32524 17.2795 6.90774 16.2235 6.79524 14.3535H8.73024C8.83149 15.3655 9.54024 16.1575 11.3402 16.1575C13.264 16.1575 13.7027 15.2115 13.7027 14.6285C13.7027 13.8365 13.264 13.0775 11.0702 12.5715C8.62899 11.9995 6.95274 11.0095 6.95274 9.04049C6.95274 7.37949 8.31399 6.30149 10.0127 5.94949V4.09048H12.634V5.97149C14.4565 6.41149 15.379 7.76449 15.4352 9.23849H13.5115C13.4665 8.16049 12.8815 7.43449 11.329 7.43449C9.85524 7.43449 8.96649 8.08349 8.96649 9.00749Z" fill="#D3D6E2"/>
</svg>
