<svg width="29" height="31" viewBox="0 0 29 31" fill="none" xmlns="http://www.w3.org/2000/svg">
<g filter="url(#filter0_d)">
<path d="M13.9983 21.5C15.379 21.5 16.4983 20.3807 16.4983 19C16.4983 18.6444 16.4241 18.3062 16.2903 18H11.7063C11.5725 18.3062 11.4983 18.6444 11.4983 19C11.4983 20.3807 12.6176 21.5 13.9983 21.5Z" stroke="#333332" stroke-width="1.8"/>
<path d="M14 3C10.4101 3 7.5 6.41015 7.5 10V13.3333C7.5 14.3825 7.00602 15.3705 6.16667 16C5.31243 16.6407 5.76554 18 6.83333 18H21.1667C22.2345 18 22.6876 16.6407 21.8333 16C20.994 15.3705 20.5 14.3825 20.5 13.3333V10C20.5 6.41015 17.5899 3 14 3Z" stroke="#333332" stroke-width="1.8" stroke-linecap="round" stroke-linejoin="round"/>
<circle cx="21" cy="4" r="3.5" fill="#D64B94" stroke="white"/>
</g>
<defs>
<filter id="filter0_d" x="-2" y="0" width="32" height="32" filterUnits="userSpaceOnUse" color-interpolation-filters="sRGB">
<feFlood flood-opacity="0" result="BackgroundImageFix"/>
<feColorMatrix in="SourceAlpha" type="matrix" values="0 0 0 0 0 0 0 0 0 0 0 0 0 0 0 0 0 0 127 0"/>
<feOffset dy="4"/>
<feGaussianBlur stdDeviation="2"/>
<feColorMatrix type="matrix" values="0 0 0 0 0 0 0 0 0 0 0 0 0 0 0 0 0 0 0.1 0"/>
<feBlend mode="normal" in2="BackgroundImageFix" result="effect1_dropShadow"/>
<feBlend mode="normal" in="SourceGraphic" in2="effect1_dropShadow" result="shape"/>
</filter>
</defs>
</svg>
