<svg width="19" height="23" viewBox="0 0 19 23" fill="none" xmlns="http://www.w3.org/2000/svg">
<path fill-rule="evenodd" clip-rule="evenodd" d="M16 15.381V9.68435C16 6.18659 14.1663 3.2585 10.9375 2.48375V1.709C10.9375 0.763355 10.1838 0 9.25 0C8.31625 0 7.5625 0.763355 7.5625 1.709V2.48375C4.345 3.2585 2.5 6.1752 2.5 9.68435V15.381L0.25 17.6597V18.799H18.25V17.6597L16 15.381ZM9.24982 22.217C10.4873 22.217 11.4998 21.1916 11.4998 19.9384H6.99981C6.99981 21.1916 8.01232 22.217 9.24982 22.217ZM4.75005 16.5204H13.7501V9.68436C13.7501 6.8588 12.0513 4.55734 9.25005 4.55734C6.4488 4.55734 4.75005 6.8588 4.75005 9.68436V16.5204Z" fill="#D3D6E2"/>
</svg>
