<svg width="22" height="22" viewBox="0 0 22 22" fill="none" xmlns="http://www.w3.org/2000/svg">
<path d="M11.9473 6.91095L7.27153 11.5867C6.34788 12.5104 6.20204 14.0085 7.03289 15.0162C7.98748 16.1741 9.69779 16.2315 10.7319 15.1974L16.1943 9.73496C16.7733 9.15602 16.8838 8.21468 16.3667 7.58271C15.7701 6.8535 14.6962 6.81373 14.0465 7.46338L9.40611 12.1038C9.16305 12.3468 9.16305 12.7446 9.40611 12.9877C9.64918 13.2307 10.0469 13.2307 10.29 12.9877L14.157 9.12066C14.3382 8.93947 14.6387 8.93947 14.8199 9.12066C15.0011 9.30186 15.0011 9.60238 14.8199 9.78358L11.0148 13.5887C10.4358 14.1676 9.4945 14.2781 8.86253 13.7611C8.13332 13.1644 8.09355 12.0905 8.7432 11.4409L13.3085 6.8756C14.2321 5.95194 15.7303 5.8061 16.7379 6.63695C17.8914 7.58713 17.9533 9.30186 16.9191 10.336L11.4965 15.7586C10.2281 17.027 8.16426 17.2347 6.78098 16.0901C5.19441 14.7687 5.11044 12.422 6.53349 10.9989L11.2844 6.24804C11.4656 6.06685 11.7661 6.06685 11.9473 6.24804C12.1285 6.42924 12.1285 6.72976 11.9473 6.91095Z" fill="black" fill-opacity="0.54"/>
</svg>
