<svg width="20" height="20" viewBox="0 0 20 20" fill="none" xmlns="http://www.w3.org/2000/svg">
<path fill-rule="evenodd" clip-rule="evenodd" d="M18.2107 9.14661C18.0935 9.72771 17.8947 10.2863 17.6242 10.8142C17.6961 11.0924 17.7335 11.3778 17.7335 11.6667C17.7335 12.3406 17.5379 12.9831 17.1803 13.5625C17.0496 13.7741 17.0076 14.0281 16.9898 14.2203C16.9702 14.4317 16.9726 14.6665 16.9857 14.8985C17.0099 15.3273 17.0742 15.7989 17.1392 16.1975C16.7066 16.0645 16.1814 15.9149 15.6997 15.8103C15.4406 15.7541 15.1816 15.7082 14.9497 15.6866C14.7391 15.667 14.4712 15.6584 14.2392 15.7334C13.5766 15.9476 12.849 16.0667 12.0835 16.0667C10.9785 16.0667 9.97208 15.8256 9.12488 15.4166C8.28696 15.4136 7.47559 15.3185 6.70508 15.1432C7.98203 16.4555 9.95594 17.2667 12.0835 17.2667C12.9731 17.2667 13.8253 17.1284 14.6083 16.8752C14.6046 16.8765 14.6054 16.8764 14.6116 16.8759C14.6303 16.8743 14.6985 16.8684 14.8385 16.8814C15.0032 16.8967 15.2101 16.932 15.4452 16.983C15.9141 17.0848 16.4457 17.2381 16.8828 17.3743C17.691 17.6261 18.4776 16.9204 18.3392 16.0985C18.2716 15.6972 18.2064 15.2314 18.1838 14.8307C18.1724 14.6296 18.1727 14.4602 18.1847 14.3312C18.1929 14.2426 18.2045 14.1987 18.2082 14.1847C18.209 14.1819 18.2094 14.1803 18.2094 14.1798C18.6698 13.4291 18.9335 12.575 18.9335 11.6667C18.9335 10.7469 18.6711 9.89465 18.2107 9.14661Z" fill="#262F56"/>
<path d="M16.2503 7.91667C16.2503 10.9082 13.079 13.3333 9.16699 13.3333C8.12723 13.3333 7.13979 13.162 6.25032 12.8543C5.70826 12.6667 3.91533 13.2856 2.7392 13.7365C2.33027 13.8932 1.90575 13.4907 2.0404 13.074C2.39458 11.9778 2.84287 10.3967 2.62652 10C2.27679 9.35867 2.08365 8.65492 2.08365 7.91667C2.08365 4.92512 5.25497 2.5 9.16699 2.5C13.079 2.5 16.2503 4.92512 16.2503 7.91667Z" stroke="#262F56" stroke-width="1.2"/>
</svg>
