<svg width="16" height="16" viewBox="0 0 16 16" fill="none" xmlns="http://www.w3.org/2000/svg">
<path fill-rule="evenodd" clip-rule="evenodd" d="M7.99967 1.33337C4.31967 1.33337 1.33301 4.32004 1.33301 8.00004C1.33301 11.68 4.31967 14.6667 7.99967 14.6667C11.6797 14.6667 14.6663 11.68 14.6663 8.00004C14.6663 4.32004 11.6797 1.33337 7.99967 1.33337ZM7.33301 4.66671V6.00005H8.66634V4.66671H7.33301ZM8.66634 10.6667C8.66634 11.0334 8.36634 11.3334 7.99967 11.3334C7.63301 11.3334 7.33301 11.0334 7.33301 10.6667V8.00004C7.33301 7.63338 7.63301 7.33338 7.99967 7.33338C8.36634 7.33338 8.66634 7.63338 8.66634 8.00004V10.6667ZM2.66636 8.00005C2.66636 10.94 5.0597 13.3334 7.9997 13.3334C10.9397 13.3334 13.333 10.94 13.333 8.00005C13.333 5.06005 10.9397 2.66671 7.9997 2.66671C5.0597 2.66671 2.66636 5.06005 2.66636 8.00005Z" fill="#6C6B82"/>
</svg>
