<svg width="12" height="12" viewBox="0 0 12 12" fill="none" xmlns="http://www.w3.org/2000/svg">
<path fill-rule="evenodd" clip-rule="evenodd" d="M0.299805 6.071C0.299805 2.851 2.9073 0.237671 6.12731 0.237671C9.35314 0.237671 11.9665 2.851 11.9665 6.071C11.9665 9.29101 9.35314 11.9043 6.12731 11.9043C2.9073 11.9043 0.299805 9.29101 0.299805 6.071ZM6.71647 3.73767C6.71647 3.41684 6.45397 3.15434 6.13314 3.15434C5.8123 3.15434 5.5498 3.41684 5.5498 3.73767V6.071C5.5498 6.39184 5.8123 6.65434 6.13314 6.65434C6.45397 6.65434 6.71647 6.39184 6.71647 6.071V3.73767ZM6.13314 10.7377C3.5548 10.7377 1.46647 8.64934 1.46647 6.071C1.46647 3.49267 3.5548 1.40434 6.13314 1.40434C8.71147 1.40434 10.7998 3.49267 10.7998 6.071C10.7998 8.64934 8.71147 10.7377 6.13314 10.7377ZM5.5498 7.821V8.98767H6.71647V7.821H5.5498Z" fill="#ffc100"/>
</svg>
