<svg width="18" height="18" viewBox="0 0 18 18" fill="none" xmlns="http://www.w3.org/2000/svg">
<path fill-rule="evenodd" clip-rule="evenodd" d="M9.00017 3.75C9.57767 3.75 10.0502 4.2225 10.0502 4.8V13.2C10.0502 13.7775 9.57767 14.25 9.00017 14.25C8.42267 14.25 7.95017 13.7775 7.95017 13.2V4.8C7.95017 4.2225 8.42267 3.75 9.00017 3.75ZM4.8 6.90003H4.95C5.5275 6.90003 6 7.37253 6 7.95003V13.2C6 13.7775 5.5275 14.25 4.95 14.25H4.8C4.2225 14.25 3.75 13.7775 3.75 13.2V7.95003C3.75 7.37253 4.2225 6.90003 4.8 6.90003ZM14.2499 10.8C14.2499 10.2225 13.7774 9.75001 13.1999 9.75001C12.6224 9.75001 12.1499 10.2225 12.1499 10.8V13.2C12.1499 13.7775 12.6224 14.25 13.1999 14.25C13.7774 14.25 14.2499 13.7775 14.2499 13.2V10.8Z" fill="#6C6B82"/>
</svg>
